<svg width="18" height="13" viewBox="0 0 18 13" fill="none" xmlns="http://www.w3.org/2000/svg">
<path d="M11.9039 2.36914C11.5402 2.59961 11.1617 2.8043 10.7613 3.02187C9.48594 3.71289 8.28164 4.36719 7.90078 5.65625L7.87734 5.73438C8.43973 5.99142 9.05079 6.12464 9.66914 6.125C10.8277 6.125 11.9133 5.69023 12.7254 4.9C13.1313 4.50646 13.4534 4.03494 13.6724 3.51377C13.8915 2.99259 14.0029 2.43251 14 1.86719C13.9971 1.45402 13.9232 1.04442 13.7816 0.65625C13.3383 1.28828 12.7215 1.85078 11.9039 2.36914V2.36914ZM9.49688 7.0625H8.50312C8.46699 7.06253 8.43199 7.07508 8.40407 7.09801C8.37615 7.12094 8.35705 7.15284 8.35 7.18828L7.35938 12.1883C7.35487 12.2109 7.35544 12.2343 7.36105 12.2567C7.36666 12.2791 7.37716 12.3 7.39181 12.3178C7.40645 12.3357 7.42487 12.3501 7.44574 12.36C7.46661 12.3698 7.48941 12.375 7.5125 12.375H10.4914C10.5145 12.375 10.5373 12.3698 10.5582 12.36C10.579 12.3501 10.5975 12.3357 10.6121 12.3178C10.6267 12.3 10.6372 12.2791 10.6429 12.2567C10.6485 12.2343 10.649 12.2109 10.6445 12.1883L9.65195 7.18828C9.64484 7.15251 9.62545 7.12036 9.59713 7.09739C9.5688 7.07442 9.53334 7.06207 9.49688 7.0625ZM11.7219 6.84063L11.2781 7.28437C11.2526 7.30992 11.2366 7.34355 11.2331 7.37951C11.2295 7.41548 11.2385 7.45158 11.2586 7.48164L13.5816 10.9664C13.5945 10.9857 13.6114 11.0018 13.6312 11.0138C13.6511 11.0257 13.6733 11.033 13.6963 11.0353C13.7193 11.0376 13.7426 11.0347 13.7644 11.0269C13.7861 11.0191 13.8059 11.0066 13.8223 10.9902L15.4277 9.38477C15.4441 9.36842 15.4566 9.34864 15.4644 9.32686C15.4722 9.30507 15.4751 9.28183 15.4728 9.25881C15.4705 9.23579 15.4632 9.21356 15.4513 9.19373C15.4393 9.1739 15.4232 9.15696 15.4039 9.14414L11.9191 6.82109C11.8891 6.80103 11.853 6.79201 11.817 6.79557C11.781 6.79913 11.7474 6.81506 11.7219 6.84063V6.84063ZM14.1562 6.125C14.1148 6.125 14.0751 6.14146 14.0458 6.17076C14.0165 6.20007 14 6.23981 14 6.28125V6.61758C14 6.65458 14.013 6.6904 14.0369 6.71865C14.0608 6.74691 14.094 6.76577 14.1305 6.77187L17.568 7.34453C17.5903 7.34827 17.6133 7.3471 17.6351 7.34109C17.657 7.33509 17.6773 7.32439 17.6946 7.30974C17.712 7.2951 17.7259 7.27685 17.7354 7.25628C17.745 7.23571 17.75 7.21331 17.75 7.19062V6.28125C17.75 6.23981 17.7335 6.20007 17.7042 6.17076C17.6749 6.14146 17.6352 6.125 17.5938 6.125H14.1562ZM6.27813 6.84063L6.72187 7.28437C6.74744 7.30992 6.76337 7.34355 6.76693 7.37951C6.77049 7.41548 6.76147 7.45158 6.74141 7.48164L4.41836 10.9664C4.40554 10.9857 4.3886 11.0018 4.36877 11.0138C4.34894 11.0257 4.32671 11.033 4.30369 11.0353C4.28067 11.0376 4.25743 11.0347 4.23564 11.0269C4.21386 11.0191 4.19408 11.0066 4.17773 10.9902L2.57227 9.38477C2.5559 9.36842 2.54336 9.34864 2.53557 9.32686C2.52777 9.30507 2.52491 9.28183 2.52719 9.25881C2.52947 9.23579 2.53683 9.21356 2.54875 9.19373C2.56066 9.1739 2.57684 9.15696 2.59609 9.14414L6.08086 6.82109C6.11093 6.80103 6.14702 6.79201 6.18299 6.79557C6.21896 6.79913 6.25258 6.81506 6.27813 6.84063V6.84063ZM3.84375 6.125H0.40625C0.36481 6.125 0.325067 6.14146 0.295765 6.17076C0.266462 6.20007 0.25 6.23981 0.25 6.28125V7.19062C0.250029 7.21331 0.254997 7.23571 0.264559 7.25628C0.27412 7.27685 0.288045 7.2951 0.305367 7.30974C0.322689 7.32439 0.342992 7.33509 0.364866 7.34109C0.386739 7.3471 0.409659 7.34827 0.432031 7.34453L3.86953 6.77187C3.90603 6.76577 3.93917 6.74691 3.96306 6.71865C3.98696 6.6904 4.00004 6.65458 4 6.61758V6.28125C4 6.23981 3.98354 6.20007 3.95424 6.17076C3.92493 6.14146 3.88519 6.125 3.84375 6.125Z" fill="#FFCC00"/>
</svg>
